<svg xmlns="http://www.w3.org/2000/svg" width="15.884" height="10.92" viewBox="0 0 15.884 10.92">
  <g id="_005-youtube" data-name="005-youtube" transform="translate(0 0)">
    <g id="Group_32" data-name="Group 32" transform="translate(0 0)">
      <path id="Path_73" data-name="Path 73" d="M15.209,81.052c-.431-.766-.9-.907-1.851-.961S10.016,80,7.944,80s-4.468.027-5.419.09-1.419.195-1.853.962S0,83.136,0,85.457v.008c0,2.311.228,3.639.672,4.4s.9.905,1.852.97,3.344.088,5.419.088,4.463-.033,5.416-.087,1.42-.2,1.851-.97c.448-.757.674-2.086.674-4.4v-.008C15.884,83.136,15.658,81.818,15.209,81.052ZM5.957,88.438V82.482L10.92,85.46Z" transform="translate(0 -80)" fill="#fff"/>
    </g>
  </g>
</svg>
