<svg xmlns="http://www.w3.org/2000/svg" width="24" height="24" viewBox="0 0 24 24">
  <g id="Group_11595" data-name="Group 11595" transform="translate(0.32)">
    <rect id="Rectangle_71" data-name="Rectangle 71" width="24" height="24" rx="4" transform="translate(-0.32)" fill="none"/>
    <g id="svgexport-6_10_" data-name="svgexport-6 (10)" transform="translate(3.664 4.544)">
      <path id="Path_11986" data-name="Path 11986" d="M17.354,49.669a7.417,7.417,0,0,1-2.05.562,3.538,3.538,0,0,0,1.565-1.966,7.11,7.11,0,0,1-2.256.861,3.557,3.557,0,0,0-6.154,2.433,3.663,3.663,0,0,0,.082.811,10.07,10.07,0,0,1-7.333-3.721A3.559,3.559,0,0,0,2.3,53.4a3.513,3.513,0,0,1-1.607-.438V53a3.574,3.574,0,0,0,2.85,3.5,3.551,3.551,0,0,1-.933.117,3.145,3.145,0,0,1-.674-.061,3.591,3.591,0,0,0,3.324,2.478A7.148,7.148,0,0,1,.851,60.552,6.665,6.665,0,0,1,0,60.5a10.016,10.016,0,0,0,5.458,1.6A10.056,10.056,0,0,0,15.583,51.976c0-.157-.005-.309-.013-.46A7.1,7.1,0,0,0,17.354,49.669Z" transform="translate(0 -48)" fill="#fff"/>
    </g>
  </g>
</svg>
