<svg xmlns="http://www.w3.org/2000/svg" xmlns:xlink="http://www.w3.org/1999/xlink" width="342.657" height="51.288" viewBox="0 0 342.657 51.288">
  <defs>
    <linearGradient id="linear-gradient" x1="0.915" y1="0.619" x2="-0.386" y2="-0.051" gradientUnits="objectBoundingBox">
      <stop offset="0" stop-color="#00a0ff"/>
      <stop offset="0.01" stop-color="#00a1ff"/>
      <stop offset="0.26" stop-color="#00beff"/>
      <stop offset="0.51" stop-color="#00d2ff"/>
      <stop offset="0.76" stop-color="#00dfff"/>
      <stop offset="1" stop-color="#00e3ff"/>
    </linearGradient>
    <linearGradient id="linear-gradient-2" x1="1.077" y1="-0.471" x2="-1.306" y2="-0.471" gradientUnits="objectBoundingBox">
      <stop offset="0" stop-color="#ffe000"/>
      <stop offset="0.41" stop-color="#ffbd00"/>
      <stop offset="0.78" stop-color="orange"/>
      <stop offset="1" stop-color="#ff9c00"/>
    </linearGradient>
    <linearGradient id="linear-gradient-3" x1="0.863" y1="-0.824" x2="-0.502" y2="-2.593" gradientUnits="objectBoundingBox">
      <stop offset="0" stop-color="#ff3a44"/>
      <stop offset="1" stop-color="#c31162"/>
    </linearGradient>
    <linearGradient id="linear-gradient-4" x1="-0.188" y1="1.894" x2="0.421" y2="1.105" gradientUnits="objectBoundingBox">
      <stop offset="0" stop-color="#32a071"/>
      <stop offset="0.07" stop-color="#2da771"/>
      <stop offset="0.48" stop-color="#15cf74"/>
      <stop offset="0.8" stop-color="#06e775"/>
      <stop offset="1" stop-color="#00f076"/>
    </linearGradient>
  </defs>
  <g id="Group_11443" data-name="Group 11443" transform="translate(-1298.032 -756)">
    <g id="Page-1" transform="translate(1298.032 756.135)">
      <g id="Artboard-1">
        <g id="App-Store">
          <path id="background" d="M5.138,0H143.967a6.143,6.143,0,0,1,6.138,6.138V45.014a6.143,6.143,0,0,1-6.138,6.138H5.138A6.143,6.143,0,0,1-1,45.014V6.138A6.143,6.143,0,0,1,5.138,0Z" transform="translate(1)" fill="#fff"/>
          <g id="icon" transform="translate(13.4 9.003)">
            <path id="Fill-2" d="M19.653,76.689a6.6,6.6,0,0,1,3.131-5.524,6.785,6.785,0,0,0-5.31-2.875c-2.23-.235-4.4,1.34-5.535,1.34-1.156,0-2.916-1.31-4.8-1.279A7.055,7.055,0,0,0,1.2,71.983c-2.568,4.45-.655,11,1.811,14.6,1.238,1.76,2.67,3.734,4.563,3.663,1.841-.072,2.537-1.177,4.757-1.177s2.854,1.177,4.778,1.136c1.985-.031,3.223-1.77,4.42-3.55a14.431,14.431,0,0,0,2.015-4.113,6.381,6.381,0,0,1-3.888-5.852" transform="translate(0.023 -61.282)" fill="#0c0c0c"/>
            <path id="Fill-3" d="M118.729,4.645A6.491,6.491,0,0,0,120.212,0a6.581,6.581,0,0,0-4.266,2.21,6.224,6.224,0,0,0-1.524,4.471,5.452,5.452,0,0,0,4.307-2.036" transform="translate(-102.685)" fill="#0c0c0c"/>
          </g>
          <g id="Group_11401" data-name="Group 11401" transform="translate(47.05 22.384)">
            <path id="Fill-4" d="M12.647,18.011H10.069L8.657,13.57H3.747l-1.34,4.44H-.1L4.76,2.9H7.767l4.88,15.111Zm-4.409-6.3L6.959,7.77c-.133-.409-.389-1.35-.757-2.844H6.151C6,5.57,5.762,6.522,5.435,7.77L4.176,11.708Z" transform="translate(0.1 -2.685)" fill="#0c0c0c"/>
            <path id="Fill-5" d="M154.5,47.445a6.137,6.137,0,0,1-1.514,4.389,4.411,4.411,0,0,1-3.356,1.432,3.361,3.361,0,0,1-3.11-1.545V57.44h-2.425V45.706c0-1.166-.031-2.353-.092-3.581h2.128l.133,1.729h.041a4.3,4.3,0,0,1,6.885-.43A5.927,5.927,0,0,1,154.5,47.445Zm-2.466.082a4.447,4.447,0,0,0-.716-2.619,2.48,2.48,0,0,0-2.107-1.074,2.571,2.571,0,0,0-1.627.593,2.74,2.74,0,0,0-.951,1.555,3.313,3.313,0,0,0-.113.737V48.54a2.929,2.929,0,0,0,.726,2.005,2.417,2.417,0,0,0,1.893.818,2.5,2.5,0,0,0,2.128-1.054A4.622,4.622,0,0,0,152.031,47.527Z" transform="translate(-129.258 -37.695)" fill="#0c0c0c"/>
            <path id="Fill-6" d="M276.9,47.445a6.137,6.137,0,0,1-1.514,4.389,4.41,4.41,0,0,1-3.356,1.432,3.36,3.36,0,0,1-3.11-1.545V57.44h-2.425V45.706c0-1.166-.031-2.353-.092-3.581h2.128l.133,1.729h.041a4.3,4.3,0,0,1,6.885-.43A5.927,5.927,0,0,1,276.9,47.445Zm-2.466.082a4.447,4.447,0,0,0-.716-2.619,2.48,2.48,0,0,0-2.108-1.074,2.571,2.571,0,0,0-1.627.593,2.8,2.8,0,0,0-.951,1.555,3.314,3.314,0,0,0-.113.737V48.54a2.929,2.929,0,0,0,.726,2.005,2.417,2.417,0,0,0,1.893.818,2.485,2.485,0,0,0,2.128-1.054A4.552,4.552,0,0,0,274.431,47.527Z" transform="translate(-239.136 -37.695)" fill="#0c0c0c"/>
            <path id="Fill-7" d="M423.861,11.89a4.046,4.046,0,0,1-1.34,3.141,5.949,5.949,0,0,1-4.113,1.32,7.2,7.2,0,0,1-3.908-.941l.563-2.015a6.8,6.8,0,0,0,3.5.941,3.3,3.3,0,0,0,2.128-.614,2.005,2.005,0,0,0,.767-1.647,2.131,2.131,0,0,0-.624-1.545,5.841,5.841,0,0,0-2.087-1.166c-2.67-.992-3.99-2.435-3.99-4.328a3.838,3.838,0,0,1,1.4-3.049A5.559,5.559,0,0,1,419.871.8a7.3,7.3,0,0,1,3.427.716l-.614,1.964a6.038,6.038,0,0,0-2.905-.7,3.014,3.014,0,0,0-2.005.624,1.815,1.815,0,0,0-.6,1.371,1.837,1.837,0,0,0,.7,1.473,7.806,7.806,0,0,0,2.2,1.166,7.375,7.375,0,0,1,2.865,1.841,3.828,3.828,0,0,1,.931,2.629" transform="translate(-372.084 -0.8)" fill="#0c0c0c"/>
            <path id="Fill-8" d="M526.229,22.132h-2.67v5.289c0,1.34.471,2.015,1.412,2.015a4.49,4.49,0,0,0,1.074-.113l.072,1.841a5.615,5.615,0,0,1-1.882.266,2.9,2.9,0,0,1-2.241-.88,4.271,4.271,0,0,1-.808-2.936V22.122H519.6V20.311h1.586V18.316l2.374-.716v2.711h2.67v1.821" transform="translate(-466.432 -15.881)" fill="#0c0c0c"/>
            <path id="Fill-9" d="M608.17,47.576a5.984,5.984,0,0,1-1.432,4.123,5.127,5.127,0,0,1-3.99,1.657,4.91,4.91,0,0,1-3.826-1.586,5.76,5.76,0,0,1-1.422-4.01,5.942,5.942,0,0,1,1.463-4.143A5.106,5.106,0,0,1,602.922,42a4.979,4.979,0,0,1,3.857,1.6A5.687,5.687,0,0,1,608.17,47.576Zm-2.506.051a4.883,4.883,0,0,0-.645-2.568,2.511,2.511,0,0,0-4.4,0,5.54,5.54,0,0,0,0,5.187,2.485,2.485,0,0,0,4.379-.02A4.958,4.958,0,0,0,605.664,47.627Z" transform="translate(-536.362 -37.785)" fill="#0c0c0c"/>
            <path id="Fill-10" d="M727.542,44.253a4.486,4.486,0,0,0-.767-.061,2.284,2.284,0,0,0-1.974.962,3.649,3.649,0,0,0-.6,2.148v5.719h-2.425V45.552c0-1.258-.02-2.4-.072-3.427h2.107l.092,2.087h.072a3.713,3.713,0,0,1,1.207-1.729,2.945,2.945,0,0,1,1.749-.583,5.1,5.1,0,0,1,.6.041l.01,2.312" transform="translate(-647.856 -37.695)" fill="#0c0c0c"/>
            <path id="Fill-11" d="M799.588,46.787a5.542,5.542,0,0,1-.092,1.095h-7.264a3.159,3.159,0,0,0,1.054,2.466,3.628,3.628,0,0,0,2.374.757,8.15,8.15,0,0,0,2.936-.512l.379,1.678a9.091,9.091,0,0,1-3.652.675,5.292,5.292,0,0,1-3.98-1.494,5.515,5.515,0,0,1-1.443-4,6.251,6.251,0,0,1,1.35-4.1,4.635,4.635,0,0,1,3.806-1.749,4.043,4.043,0,0,1,3.56,1.749,5.917,5.917,0,0,1,.972,3.437Zm-2.312-.624a3.263,3.263,0,0,0-.47-1.862,2.112,2.112,0,0,0-1.923-1.013,2.3,2.3,0,0,0-1.923.982,3.64,3.64,0,0,0-.716,1.882Z" transform="translate(-709.079 -37.426)" fill="#0c0c0c"/>
          </g>
          <g id="Available-on-the" transform="translate(47.951 9.381)">
            <path id="Fill-12" d="M5.971,11.927H4.7l-.7-2.179H1.593L.928,11.927H-.3L2.084,4.5H3.557Zm-2.179-3.1L3.168,6.884c-.061-.194-.184-.665-.379-1.4h-.02c-.082.317-.184.778-.358,1.4L1.8,8.828Z" transform="translate(0.3 -4.111)" fill="#0c0c0c"/>
            <path id="Fill-13" d="M74.246,24.7,72.22,30.061H71.064L69.1,24.7h1.279l.911,2.834c.153.471.286.921.389,1.35h.031c.092-.389.225-.839.389-1.35L73,24.7h1.248" transform="translate(-62 -22.245)" fill="#0c0c0c"/>
            <path id="Fill-14" d="M132.425,29.253l-.092-.614H132.3a1.841,1.841,0,0,1-1.565.737A1.554,1.554,0,0,1,129.1,27.8c0-1.32,1.146-2.005,3.131-2.005v-.1c0-.706-.379-1.054-1.115-1.054a2.5,2.5,0,0,0-1.4.4l-.246-.778a3.439,3.439,0,0,1,1.841-.46c1.4,0,2.107.737,2.107,2.22v1.974a7.131,7.131,0,0,0,.082,1.279Zm-.164-2.67c-1.32,0-1.985.317-1.985,1.084a.759.759,0,0,0,.818.839,1.138,1.138,0,0,0,1.166-1.095Z" transform="translate(-115.862 -21.437)" fill="#0c0c0c"/>
            <path id="Fill-15" d="M191.006,3.622a.711.711,0,1,1,.02-1.422.694.694,0,0,1,.726.706A.7.7,0,0,1,191.006,3.622Zm-.573.88h1.187V9.852h-1.187Z" transform="translate(-170.801 -2.047)" fill="#0c0c0c"/>
            <path id="Fill-16" d="M223.9.7h1.187V8.506H223.9Z" transform="translate(-200.963 -0.7)" fill="#0c0c0c"/>
            <path id="Fill-17" d="M255.725,29.163l-.092-.614H255.6a1.841,1.841,0,0,1-1.565.737A1.554,1.554,0,0,1,252.4,27.71c0-1.32,1.146-2.005,3.131-2.005v-.1c0-.706-.379-1.054-1.115-1.054a2.5,2.5,0,0,0-1.4.4l-.246-.788a3.439,3.439,0,0,1,1.841-.46c1.4,0,2.107.737,2.107,2.22v1.974a8.459,8.459,0,0,0,.072,1.279h-1.064Zm-.164-2.67c-1.32,0-1.985.317-1.985,1.084a.759.759,0,0,0,.818.839,1.138,1.138,0,0,0,1.166-1.095Z" transform="translate(-226.547 -21.347)" fill="#0c0c0c"/>
            <path id="Fill-18" d="M317.293,8.639a1.823,1.823,0,0,1-1.688-.951h-.021l-.072.829H314.5c.031-.43.041-.911.041-1.443V.7h1.2V3.943h.02a1.84,1.84,0,0,1,1.709-.89c1.289,0,2.189,1.1,2.189,2.711C319.656,7.421,318.654,8.639,317.293,8.639Zm-.246-4.655a1.366,1.366,0,0,0-1.31,1.422v.941a1.308,1.308,0,0,0,1.289,1.34c.89,0,1.422-.726,1.422-1.882C318.449,4.721,317.9,3.984,317.047,3.984Z" transform="translate(-282.294 -0.7)" fill="#0c0c0c"/>
            <path id="Fill-19" d="M382.1.7h1.187V8.506H382.1Z" transform="translate(-342.978 -0.7)" fill="#0c0c0c"/>
            <path id="Fill-20" d="M415.616,26.59h-3.57a1.537,1.537,0,0,0,1.688,1.586,4.024,4.024,0,0,0,1.443-.256l.184.829a4.339,4.339,0,0,1-1.79.327,2.486,2.486,0,0,1-2.67-2.7,2.616,2.616,0,0,1,2.537-2.875,2.255,2.255,0,0,1,2.23,2.547,2.072,2.072,0,0,1-.051.542Zm-1.084-.849c0-.829-.419-1.412-1.176-1.412a1.411,1.411,0,0,0-1.3,1.412Z" transform="translate(-368.832 -21.167)" fill="#0c0c0c"/>
            <path id="Fill-21" d="M504.878,29.286a2.546,2.546,0,0,1-2.578-2.752,2.607,2.607,0,0,1,2.67-2.834,2.527,2.527,0,0,1,2.578,2.742A2.627,2.627,0,0,1,504.878,29.286Zm.051-4.716c-.859,0-1.412.808-1.412,1.923s.563,1.9,1.4,1.9,1.4-.859,1.4-1.934S505.768,24.57,504.929,24.57Z" transform="translate(-450.881 -21.347)" fill="#0c0c0c"/>
            <path id="Fill-22" d="M574.986,29.073H573.8V25.994c0-.951-.368-1.422-1.084-1.422a1.231,1.231,0,0,0-1.187,1.31v3.182h-1.187V25.247c0-.471-.01-.982-.041-1.535h1.043l.051.829h.031a1.926,1.926,0,0,1,1.7-.941c1.125,0,1.862.859,1.862,2.261v3.212" transform="translate(-511.925 -21.257)" fill="#0c0c0c"/>
            <path id="Fill-23" d="M663.743,13.93h-1.31v2.6c0,.665.235.992.7.992a2.6,2.6,0,0,0,.532-.051l.031.9a2.578,2.578,0,0,1-.921.133c-.941,0-1.494-.522-1.494-1.872v-2.7H660.5v-.89h.778v-.982l1.166-.358v1.33h1.31v.9" transform="translate(-592.897 -10.575)" fill="#0c0c0c"/>
            <path id="Fill-24" d="M713.045,8.516h-1.187V5.457c0-.962-.368-1.443-1.084-1.443a1.166,1.166,0,0,0-1.187,1.269V8.506H708.4V.7h1.187V3.912h.021a1.8,1.8,0,0,1,1.606-.87c1.135,0,1.831.88,1.831,2.281V8.516" transform="translate(-635.896 -0.7)" fill="#0c0c0c"/>
            <path id="Fill-25" d="M771.816,26.59h-3.57a1.537,1.537,0,0,0,1.688,1.586,4.024,4.024,0,0,0,1.443-.256l.184.829a4.339,4.339,0,0,1-1.79.327,2.486,2.486,0,0,1-2.67-2.7,2.616,2.616,0,0,1,2.537-2.875,2.256,2.256,0,0,1,2.23,2.547A2.069,2.069,0,0,1,771.816,26.59Zm-1.084-.849c0-.829-.419-1.412-1.177-1.412a1.4,1.4,0,0,0-1.3,1.412Z" transform="translate(-688.591 -21.167)" fill="#0c0c0c"/>
          </g>
        </g>
      </g>
    </g>
    <g id="Group_11403" data-name="Group 11403" transform="translate(1468.656 756)">
      <rect id="Rectangle_13912" data-name="Rectangle 13912" width="172" height="51" rx="5" transform="translate(0.033)" fill="#fff"/>
      <g id="Group_11405" data-name="Group 11405" transform="translate(52.446 9.142)">
        <path id="Path_11793" data-name="Path 11793" d="M49.072,11.157a3.46,3.46,0,0,1-.954,2.544,3.689,3.689,0,0,1-2.8,1.119,3.931,3.931,0,0,1-3.969-3.969,3.816,3.816,0,0,1,1.158-2.837,4.02,4.02,0,0,1,4.376-.827,3.231,3.231,0,0,1,1.2.852l-.674.674A2.544,2.544,0,0,0,45.319,7.8a2.951,2.951,0,0,0-2.964,3.053,3,3,0,0,0,5.088,2.2,2.455,2.455,0,0,0,.649-1.552H45.319v-.916h3.7A4.769,4.769,0,0,1,49.072,11.157Z" transform="translate(-41.349 -6.869)" fill="#0c0c0c"/>
        <path id="Path_11794" data-name="Path 11794" d="M52.947,7.941H49.512v2.417h3.129v.916H49.512v2.417h3.435v.941H48.52V7h4.427Z" transform="translate(-39.398 -6.833)" fill="#0c0c0c"/>
        <path id="Path_11795" data-name="Path 11795" d="M55.947,14.633h-.98V7.941H52.83V7h5.3v.941H55.947Z" transform="translate(-38.225 -6.833)" fill="#0c0c0c"/>
        <path id="Path_11796" data-name="Path 11796" d="M59.94,14.633V7h.98v7.633Z" transform="translate(-36.29 -6.833)" fill="#0c0c0c"/>
        <path id="Path_11797" data-name="Path 11797" d="M64.8,14.633h-.98V7.941H61.68V7h5.241v.941H64.8Z" transform="translate(-35.817 -6.833)" fill="#0c0c0c"/>
        <path id="Path_11798" data-name="Path 11798" d="M75.047,13.676a3.956,3.956,0,0,1-5.6,0,3.816,3.816,0,0,1-1.119-2.824A3.816,3.816,0,0,1,69.45,8.028a3.727,3.727,0,0,1,2.8-1.158,3.816,3.816,0,0,1,2.8,1.158,3.905,3.905,0,0,1,1.119,2.824,3.816,3.816,0,0,1-1.119,2.824Zm-4.872-.636a2.913,2.913,0,0,0,4.147,0,3,3,0,0,0,.852-2.188,3,3,0,0,0-.9-2.188,2.913,2.913,0,0,0-4.147,0,3,3,0,0,0-.8,2.188,3,3,0,0,0,.852,2.188Z" transform="translate(-34.008 -6.869)" fill="#0c0c0c"/>
        <path id="Path_11799" data-name="Path 11799" d="M75.58,14.633V7h1.183l3.715,5.941h0V7h.98v7.633H80.439L76.56,8.412h0v6.221Z" transform="translate(-32.035 -6.833)" fill="#0c0c0c"/>
      </g>
      <path id="Path_11800" data-name="Path 11800" d="M75.559,23.03a5.419,5.419,0,1,0,5.432,5.406,5.33,5.33,0,0,0-5.432-5.406Zm0,8.688a3.282,3.282,0,1,1,3.053-3.282,3.129,3.129,0,0,1-3.053,3.282ZM63.7,23.03a5.419,5.419,0,1,0,5.432,5.406A5.33,5.33,0,0,0,63.7,23.03Zm0,8.688a3.282,3.282,0,1,1,3.053-3.282A3.129,3.129,0,0,1,63.7,31.719ZM49.609,24.7v2.29h5.5a4.8,4.8,0,0,1-1.272,2.888,5.623,5.623,0,0,1-4.249,1.679,6.106,6.106,0,0,1,0-12.212,5.9,5.9,0,0,1,4.172,1.641l1.616-1.616a8.014,8.014,0,0,0-5.763-2.315,8.409,8.409,0,1,0,0,16.8A7.722,7.722,0,0,0,55.473,31.5a7.633,7.633,0,0,0,1.984-5.381,7.976,7.976,0,0,0-.114-1.425Zm57.639,1.781a5,5,0,0,0-9.719,1.959,5.381,5.381,0,0,0,9.872,3.015l-1.845-1.272a3.066,3.066,0,0,1-2.659,1.488,2.735,2.735,0,0,1-2.621-1.641l7.238-2.989Zm-7.378,1.806a2.964,2.964,0,0,1,2.837-3.155,2.086,2.086,0,0,1,2,1.145Zm-5.877,5.241h2.379v-15.9H93.992ZM90.1,24.239h-.089a3.74,3.74,0,0,0-2.85-1.208,5.419,5.419,0,0,0,0,10.826,3.664,3.664,0,0,0,2.85-1.272H90.1v.776c0,2.074-1.107,3.18-2.888,3.18a3,3,0,0,1-2.735-1.921l-2.061.852a5.088,5.088,0,0,0,4.8,3.206c2.786,0,5.088-1.641,5.088-5.635V23.348H90.1Zm-2.735,7.48a3.282,3.282,0,0,1,0-6.551,3.04,3.04,0,0,1,2.9,3.269,3.028,3.028,0,0,1-2.9,3.282Zm31.027-14.095h-5.7v15.9h2.379V27.5h3.32a4.948,4.948,0,1,0,0-9.872Zm0,7.633h-3.32V19.837h3.371a2.722,2.722,0,1,1,0,5.445Zm14.68-2.277a4.44,4.44,0,0,0-4.236,2.43l2.1.878a2.264,2.264,0,0,1,2.175-1.158,2.29,2.29,0,0,1,2.544,2.048v.153a5.317,5.317,0,0,0-2.481-.611c-2.264,0-4.58,1.272-4.58,3.587a3.676,3.676,0,0,0,3.956,3.5,3.371,3.371,0,0,0,3.028-1.552h.076v1.272h2.29V27.406c0-2.786-2.112-4.4-4.821-4.4Zm-.293,8.714c-.776,0-1.857-.394-1.857-1.348,0-1.272,1.348-1.7,2.544-1.7a4.223,4.223,0,0,1,2.163.534,2.875,2.875,0,0,1-2.8,2.544Zm13.51-8.345-2.722,6.895h-.076l-2.824-6.895h-2.544l4.236,9.643-2.417,5.356h2.544l6.45-15ZM124.917,33.525h2.366v-15.9h-2.366Z" transform="translate(10.967 5.042)" fill="#0c0c0c"/>
      <path id="Path_11801" data-name="Path 11801" d="M10.561,7.559A2.544,2.544,0,0,0,10,9.34V37.479a2.468,2.468,0,0,0,.6,1.781l.089.1L26.412,23.6v-.382L10.65,7.47Z" transform="translate(2.565 2.436)" fill="url(#linear-gradient)"/>
      <path id="Path_11802" data-name="Path 11802" d="M28.116,26.609,22.9,21.355v-.382l5.216-5.254.114.076,6.246,3.536c1.781,1,1.781,2.659,0,3.676l-6.221,3.536Z" transform="translate(6.077 4.681)" fill="url(#linear-gradient-2)"/>
      <path id="Path_11803" data-name="Path 11803" d="M31.659,25.381,26.29,20,10.44,35.85a2.061,2.061,0,0,0,2.633.089L31.659,25.381" transform="translate(2.686 5.846)" fill="url(#linear-gradient-3)"/>
      <path id="Path_11804" data-name="Path 11804" d="M31.659,18.133,13.073,7.575a2.048,2.048,0,0,0-2.633.076L26.29,23.5Z" transform="translate(2.686 2.344)" fill="url(#linear-gradient-4)"/>
      <path id="Path_11805" data-name="Path 11805" d="M31.506,24.13,13.073,34.625a2.112,2.112,0,0,1-2.544,0h0l-.089.089h0l.089.1h0a2.112,2.112,0,0,0,2.544,0L31.659,24.257Z" transform="translate(2.686 6.969)" opacity="0.2"/>
      <path id="Path_11806" data-name="Path 11806" d="M10.561,32.7A2.544,2.544,0,0,1,10,30.91V31.1a2.468,2.468,0,0,0,.6,1.781l.089-.089Z" transform="translate(2.565 8.814)" opacity="0.12"/>
      <path id="Path_11807" data-name="Path 11807" d="M33.361,21.654,27,25.254l.114.127,6.246-3.549A2.226,2.226,0,0,0,34.709,20h0A2.366,2.366,0,0,1,33.361,21.654Z" transform="translate(7.192 5.846)" opacity="0.12"/>
      <path id="Path_11808" data-name="Path 11808" d="M13.193,7.751,37.986,21.846A2.366,2.366,0,0,1,39.335,23.5h0a2.226,2.226,0,0,0-1.348-1.832L13.193,7.573C11.425,6.555,10,7.395,10,9.43v.191C10,7.585,11.425,6.746,13.193,7.751Z" transform="translate(2.566 2.346)" fill="#fff" opacity="0.25"/>
    </g>
  </g>
</svg>
