<svg xmlns="http://www.w3.org/2000/svg" width="24" height="24" viewBox="0 0 24 24">
  <g id="Group_11592" data-name="Group 11592" transform="translate(0)">
    <rect id="Rectangle_71" data-name="Rectangle 71" width="24" height="24" rx="4" transform="translate(0 0)" fill="none"/>
    <g id="_002-facebook-logo" data-name="002-facebook-logo" transform="translate(7.946 4.544)">
      <path id="Path_70" data-name="Path 70" d="M29.413,0,27.585,0A3.211,3.211,0,0,0,24.2,3.47v1.6H22.364a.288.288,0,0,0-.287.288V7.676a.287.287,0,0,0,.287.287H24.2v5.849a.287.287,0,0,0,.287.287h2.4a.287.287,0,0,0,.287-.287V7.963h2.15a.287.287,0,0,0,.288-.287V5.357a.288.288,0,0,0-.288-.288h-2.15V3.714c0-.652.155-.983,1-.983h1.232a.287.287,0,0,0,.287-.287V.29A.288.288,0,0,0,29.413,0Z" transform="translate(-22.077)" fill="#fff"/>
    </g>
  </g>
</svg>
