<svg xmlns="http://www.w3.org/2000/svg" width="24" height="24" viewBox="0 0 24 24">
  <g id="Group_11594" data-name="Group 11594" transform="translate(-0.32)">
    <rect id="Rectangle_68" data-name="Rectangle 68" width="24" height="24" rx="4" transform="translate(0.32 0)" fill="none"/>
    <g id="instagram_1_" data-name="instagram (1)" transform="translate(4.805 4.747)">
      <path id="Path_74" data-name="Path 74" d="M10,0H4.242A4.247,4.247,0,0,0,0,4.242V10a4.247,4.247,0,0,0,4.242,4.242H10A4.247,4.247,0,0,0,14.241,10V4.242A4.247,4.247,0,0,0,10,0Zm2.81,10A2.81,2.81,0,0,1,10,12.808H4.242A2.81,2.81,0,0,1,1.433,10V4.242a2.81,2.81,0,0,1,2.81-2.81H10a2.81,2.81,0,0,1,2.81,2.81V10Z" fill="#fff"/>
      <path id="Path_75" data-name="Path 75" d="M136.683,133a3.683,3.683,0,1,0,3.683,3.683A3.687,3.687,0,0,0,136.683,133Zm0,5.934a2.251,2.251,0,1,1,2.251-2.251A2.251,2.251,0,0,1,136.683,138.934Z" transform="translate(-129.563 -129.563)" fill="#fff"/>
      <ellipse id="Ellipse_5" data-name="Ellipse 5" cx="0.883" cy="0.883" rx="0.883" ry="0.883" transform="translate(9.928 2.582)" fill="#fff"/>
    </g>
  </g>
</svg>
