<svg xmlns="http://www.w3.org/2000/svg" width="745.068" height="823.4" viewBox="0 0 745.068 823.4">
  <g id="Group_55" data-name="Group 55" transform="translate(-140 -1239.499)">
    <g id="Group_25" data-name="Group 25" transform="translate(140 1287.214)">
      <g id="Background_Simple" data-name="Background Simple" transform="translate(0 0)">
        <g id="Group_13" data-name="Group 13">
          <path id="Path_13" data-name="Path 13" d="M532.177,40.1c-63.617,1.1-112.682,53.122-167.137,86.029-82.254,49.7-187.877,59.794-257.336,126.211-47.558,45.475-71.077,114-64.388,179.463S85.906,558.622,137.9,598.953c33.151,25.715,72.063,43.05,111.768,56.606C289.9,669.3,331.8,679.464,374.315,680c58.931.743,116.819-17.076,170.125-42.213,37.071-17.482,72.808-38.846,101.964-67.651,27.547-27.217,48.668-60.637,63.135-96.557,35.763-88.786,30.069-190.528-.928-281.089C682.971,117.585,620.27,38.577,532.177,40.1Z" transform="translate(-42.196 -40.074)" fill="#f7f9ff"/>
        </g>
      </g>
      <g id="Wallet" transform="translate(34.45 211.505)">
        <g id="Group_19" data-name="Group 19">
          <path id="Path_15" data-name="Path 15" d="M551.764,310.731c-.456-13.021-1.3-26.906-2.705-41.273-1.882-28.677-5.481-55.479-12-72.322v-.005h0l0-.005h-.029c-35.839-7.341-222.262,6.261-222.393,6.271l-1.172-5.18c-.15-.688-.309-1.376-.467-2.062l-.816-3.611-.237-.823c-1.206-4.871-2.567-9.706-4.167-14.486h0l0,0s-141.322-12.62-188.2-.382v.009h0c.007.411.009.809.017,1.219l.138,11.574c.137,22.386-.382,43.373.778,66.445l0,.161-.019,0a4.615,4.615,0,0,0-.686.074,9.886,9.886,0,0,0-8.057,6.549h0a9.883,9.883,0,0,0-.512,4.18l.674,7.192c.01.116.016.225.026.344,1.728,18.355,3.422,36.54,3.422,36.54h.021c.059.029.885.086,2.359.164l7.761.541c-16.521,1.533-34.525,23.342-33.773,42.092S74.437,408.012,78.945,428.3c3.519,15.838,21.235,41.292,29.908,60.634q-.311,1.781-.683,3.839l-38.7,77.692c2.588-3.8,25.881,97.655,134.3,76.171l77.106-125.623h0a149.235,149.235,0,0,0,23.48-22.073,38.2,38.2,0,0,0,7.27-10.056l0-.009A53.8,53.8,0,0,0,317.88,474.7q.513-1.95,1.077-3.931c6.293-16.021,14.7-37.892,20.853-53.042,81.184-2.4,166.53-7.365,209.371-17.449l.1-.014C553.411,372.1,553.5,340.485,551.764,310.731ZM134.545,381.715a122.155,122.155,0,0,1-1.2-14.125q1.421,7.462,3.066,14.917C135.8,382.226,135.178,381.948,134.545,381.715Z" transform="translate(-56.778 -155.832)" opacity="0.1"/>
          <g id="Group_18" data-name="Group 18">
            <g id="Group_14" data-name="Group 14" transform="translate(0 129.986)">
              <path id="Path_16" data-name="Path 16" d="M64.361,517.336s34.71,102.605,143.133,81.122c0,0,24.054-112.945,44.215-129.571,13.005-10.724,41.719-29.948,47.848-43.857,6.252-14.182,30.786-80,35.56-87.953S283.4,237.64,283.4,237.64L164.411,299.033,98.2,416.641S85.5,492.574,64.361,517.336Z" transform="translate(-60.5 -237.64)" fill="#fff"/>
              <path id="Path_17" data-name="Path 17" d="M98.671,346.429s-8.492,63.453-36.544,96.606" transform="translate(-62.127 -158.388)" fill="none" stroke="#263238" stroke-linecap="round" stroke-linejoin="round" stroke-width="1"/>
              <path id="Path_18" data-name="Path 18" d="M147.169,549.962S171.1,440.678,191.384,420.391c0,0,45.835-26.665,54.1-58.039,5.723-21.727,16.127-46.773,21.1-58.141" transform="translate(-0.174 -189.144)" fill="none" stroke="#263238" stroke-linecap="round" stroke-linejoin="round" stroke-width="1"/>
              <path id="Path_19" data-name="Path 19" d="M152.785,306.224c-1.775-1.1,27.734,22.543,28.88,54.688" transform="translate(3.861 -187.704)" fill="none" stroke="#263238" stroke-linecap="round" stroke-linejoin="round" stroke-width="1"/>
            </g>
            <path id="Path_20" data-name="Path 20" d="M522.32,391.188C426.769,413.728,119.028,410.7,119.028,410.7c-2.593-5.462-5.721-19.221-8.746-35.158-6.05-31.995-11.7-72.77-11.7-72.77L88.4,302.067s-1.694-18.184-3.422-36.54c-1.711-18.357,8.573-18.339,8.573-18.339l-.743-63.539-.19-15.868c46.877-12.238,188.2.38,188.2.38l4.408,15.314,2.454,10.855L510.1,188.056C530.531,240.792,522.32,391.188,522.32,391.188Z" transform="translate(-45.621 -162.438)" fill="#2bb9f3"/>
            <g id="Group_15" data-name="Group 15" transform="translate(281.803 74.806)">
              <path id="Rectangle_13963" data-name="Rectangle 13963" d="M6.294,0H161.341a6.294,6.294,0,0,1,6.294,6.294V45.1a6.293,6.293,0,0,1-6.293,6.293H6.293A6.293,6.293,0,0,1,0,45.1V6.294A6.294,6.294,0,0,1,6.294,0Z" transform="translate(0 8.037) rotate(-2.748)" fill="#263238"/>
              <path id="Path_21" data-name="Path 21" d="M394.2,246.54l.455,4.925L226.688,257.97l-.14-4.423Z" transform="translate(-224.15 -175.977)" fill="#263238"/>
              <path id="Path_22" data-name="Path 22" d="M394.814,256.451l.14,4.422-167.96,6.212-.14-4.423Z" transform="translate(-223.927 -168.756)" fill="#263238"/>
            </g>
            <path id="Path_23" data-name="Path 23" d="M424.593,178.182s24.794,117.539,12.22,203.133c0,0-156.736,18.381-210.4,15.416l-2.2-28.6,4.491-.7s-21.684-163.267-26.534-182.982C202.164,184.446,388.815,170.824,424.593,178.182Z" transform="translate(39.889 -152.558)" opacity="0.3"/>
            <path id="Path_24" data-name="Path 24" d="M285.758,286.907l1.877,21.625s-158,6.909-171.883,1.894.738-13.061,37.481-15.944S285.758,286.907,285.758,286.907Z" transform="translate(-26.826 -71.764)" fill="#fff" opacity="0.8"/>
            <ellipse id="Ellipse_5" data-name="Ellipse 5" cx="14.44" cy="13.062" rx="14.44" ry="13.062" transform="translate(150.169 97.308)" fill="#263238"/>
            <path id="Path_25" data-name="Path 25" d="M92.765,292.593c3.635,38.023,9.737,71.269,20.446,107.941,67.012-.572,134.01-1.326,201-3.467s135.849-6.66,202.3-16.046c0,0,11.9-105.02-12.22-203.133-26.646-5.545-221.686,6.243-221.686,6.243" transform="translate(-39.807 -152.264)" fill="none" stroke="#263238" stroke-linecap="round" stroke-linejoin="round" stroke-width="1"/>
            <path id="Path_26" data-name="Path 26" d="M301.253,377.3l1.877,21.625-150.318,3.467c-6.207.529-15.862,1.343-21.565-1.573-2.6-1.333-4.472-4.587-3.246-7.244,1.1-2.39,4.024-3.23,6.6-3.761,18.4-3.779,37.163-5.377,55.891-6.762q60.123-4.441,120.412-6.026c-.831.022-10.646-80.874-11.731-88.335-4.254-29.22-8.3-58.548-13.548-87.609a236.326,236.326,0,0,0-8.11-33.2c-61.946-4.427-126.636-8.528-188.2-.377.56,27.435-.449,51.919.94,79.4" transform="translate(-42.321 -162.152)" fill="none" stroke="#263238" stroke-linecap="round" stroke-linejoin="round" stroke-width="1"/>
            <path id="Path_27" data-name="Path 27" d="M113.348,397.347s-7.78-20.324,28.283-24.334,117-11.392,159.362-12.537c-8.54-62.255-18.064-123.95-29.144-185.8,0,0-116.143-8.891-182.427-3.168" transform="translate(-42.243 -157.229)" fill="none" stroke="#263238" stroke-linecap="round" stroke-linejoin="round" stroke-width="1" stroke-dasharray="4 4"/>
            <path id="Path_28" data-name="Path 28" d="M88.64,267.83l-4.129-44.073a9.9,9.9,0,0,1,9.277-10.808c25.405-1.467,91.126-4.918,116.352-2.9,12.113.97,25.248,4.85,31.151,16.433,4.862,9.543,5.6,23.86-2.589,31.706-12.447,11.925-36.044,11.007-52.1,11.574C156.71,270.817,88.664,268.085,88.64,267.83Z" transform="translate(-45.853 -128.203)" fill="none" stroke="#263238" stroke-linecap="round" stroke-linejoin="round" stroke-width="1"/>
            <path id="Path_29" data-name="Path 29" d="M238.856,227.649c.05-1.231,6.283,25.317-16.708,34.075s-129.383,6.008-129.383,6.008V255.292s75.276,1.578,87.794,1.231S237.5,260.353,238.856,227.649Z" transform="translate(-39.807 -114.963)" fill="#263238"/>
            <path id="Path_30" data-name="Path 30" d="M164.489,313.432s18.8,11.014,25.848,31.692" transform="translate(12.443 -52.44)" fill="none" stroke="#263238" stroke-linecap="round" stroke-linejoin="round" stroke-width="1"/>
            <path id="Path_31" data-name="Path 31" d="M84.788,216.839s92.236-4.337,115.7-3.555,34.969,5.939,37.315,20.652-11.892,23.94-23.234,25.5-126.164,2.235-126.164,2.235" transform="translate(-45.619 -125.466)" fill="none" stroke="#263238" stroke-linecap="round" stroke-linejoin="round" stroke-width="1" stroke-dasharray="4 4"/>
            <g id="Group_17" data-name="Group 17" transform="translate(5.648 110.371)">
              <g id="Group_16" data-name="Group 16">
                <path id="Path_32" data-name="Path 32" d="M162.294,382.752s-14.276-49.591-40.573-59.358c0,0-5.26-33.844,6.01-35.707s42.829-22.711,34.563-48.728-33.059,13.055-49.591,14.557-34.563,23.333-33.811,42.1-17.281,54.078-12.774,74.365,32.309,56.352,34.563,75.138" transform="translate(-65.395 -223.557)" fill="#fff" stroke="#263238" stroke-linecap="round" stroke-linejoin="round" stroke-width="1"/>
                <path id="Path_33" data-name="Path 33" d="M101.446,248.614s19.79,3.6,30.553-8.955-1.63-13.366-1.63-13.366Z" transform="translate(-39.132 -226.292)" fill="#fff" stroke="#263238" stroke-linecap="round" stroke-linejoin="round" stroke-width="1"/>
              </g>
              <path id="Path_34" data-name="Path 34" d="M81,255.411a21.65,21.65,0,0,1,10.17,3.336" transform="translate(-54.029 -205.079)" fill="none" stroke="#263238" stroke-linecap="round" stroke-linejoin="round" stroke-width="1"/>
              <path id="Path_35" data-name="Path 35" d="M80.651,259.57a19.019,19.019,0,0,1,9.884,3.913" transform="translate(-54.281 -202.049)" fill="none" stroke="#263238" stroke-linecap="round" stroke-linejoin="round" stroke-width="1"/>
            </g>
            <path id="Path_36" data-name="Path 36" d="M111.555,299.409s84.743-4.373,107.006-3.1" transform="translate(-26.119 -65.085)" fill="none" stroke="#263238" stroke-linecap="round" stroke-linejoin="round" stroke-width="1"/>
            <path id="Path_37" data-name="Path 37" d="M161.532,292.782s21.314-1.658,34.594,0" transform="translate(10.289 -68.02)" fill="none" stroke="#263238" stroke-linecap="round" stroke-linejoin="round" stroke-width="1"/>
            <line id="Line_1" data-name="Line 1" x2="34.496" transform="translate(225.811 230.99)" fill="none" stroke="#263238" stroke-linecap="round" stroke-linejoin="round" stroke-width="1"/>
            <path id="Path_38" data-name="Path 38" d="M204.836,189.935s151.468-13.522,212.33-5.8c0,0,16.419,30.2,12.855,184.98,0,0-98.516,13.579-206.182,15.33" transform="translate(41.836 -148.369)" fill="none" stroke="#263238" stroke-linecap="round" stroke-linejoin="round" stroke-width="1" stroke-dasharray="4 4"/>
          </g>
        </g>
      </g>
      <g id="Card" transform="translate(307.583 96.798)">
        <g id="Group_24" data-name="Group 24" transform="translate(0 0)">
          <g id="Group_20" data-name="Group 20" transform="translate(0 15.356)" opacity="0.1">
            <path id="Path_39" data-name="Path 39" d="M603.717,460.041c-4.3-18.3-10.611-25.184-16.927-30.472,0,0-.147-10.407-8.255-16.286a55.484,55.484,0,0,0-6.971-5.158c-7.612-5.706-16-12.165-16-12.167-3.941-11.408-9.277-25.217-15.041-38.806l.289,3.091c-5.906-14.429-11.7-28.8-13.328-33.567l-.035-.1c1.684,4.593,3.473,9.026,5.367,13.131l-21.656-76.488c-.515-3.078-1.041-6.108-1.587-9.023-1.025-8.6-3.86-24.932-10.651-26.074a3.561,3.561,0,0,0-.757-.076s-8-3.471-8,10.736c-9.526,3.174-13.209,10.288-14.132,18.825a25.642,25.642,0,0,0-.161,8.117c.164,3.127.536,6.325,1.006,9.507L446.35,235.041l-2.978-3.92-37.811-49.784L354.686,114.37a23.811,23.811,0,0,0-33.363-4.558l-63.064,47.929-24.641,18.711c-18.9,9.835-13.964,29.265-8.729,36.158L334.936,357.479a11.307,11.307,0,0,0-1.706-.083s-3.148-7.426-10.926-6.24a8.885,8.885,0,0,0-4.636,1.535,8.229,8.229,0,0,0-3.084,2.814,23.964,23.964,0,0,0-2.316,3.31c-3.97,6.784-.306,23.357,5.419,43.608.363,1.307.723,2.567,1.07,3.751l.055.188q.721,2.5,1.469,5.056c5.6,19.435,16.08,57.581,18.011,76.277q.207,2.717.266,5.307c.126,21.537-9.438,57.6-5.329,72.49.541,1.957,1.086,3.834,1.649,5.675,3.056,9.958,5.792,19.373,10.594,28.736,5.844,11.4,12.81,22.342,19.319,33.386q17.947,30.454,37.135,60.152c5.882,9.1,12.786,17.392,19.459,25.967,3.049,3.918,9.731,9.821,10.891,14.849,0,0,59.163,4.892,92.288-16.148l-3.122-47.077,22.206-127.66c6.344-9.616,25.858-28.43,29.849-34.38,2.008-2.958,3.982-5.886,5.9-8.765,14.614-13.629,21.931-24.27,25.136-36.492C604.533,463.735,604.3,462.338,603.717,460.041Zm-207.188,24.98-.014-.033.017.041Zm2.363,2.913-.285-.565a69.382,69.382,0,0,0,18.984,5.535C410.726,492.1,402.932,491.007,398.892,487.934Zm24.923,5.714h-.007q1.55.132,3.18.214A21.725,21.725,0,0,1,423.815,493.648Zm-25.58-7.019-3.967-7.885c-5.542-15.871-18.035-53.272-18.087-53.426l0-.01a213.585,213.585,0,0,0-9.75-31.545,18.841,18.841,0,0,0,17.66-2.772l30.242-22.973c3.123,1.882,6.328,3.573,9.46,5.066l28.32,22.149-22.464,92.355Zm114.68-212.714,0,0c2.337,11.042,6.067,26.906,10.979,42.274C520.188,305.108,515.586,290.087,512.916,273.915Z" transform="translate(-220.145 -104.96)"/>
            <path id="Path_40" data-name="Path 40" d="M315.248,459.453l.185.818S315.369,459.973,315.248,459.453Z" transform="translate(-150.862 153.287)"/>
          </g>
          <g id="Group_23" data-name="Group 23" transform="translate(19.734)">
            <g id="Group_21" data-name="Group 21" transform="translate(180.738 157.266)">
              <path id="Path_41" data-name="Path 41" d="M405.079,217.5c1.8-1.148,27.072-14.934,39.709,26.424s27.573,111.751,27.573,111.751l-30.138,5.9s-27.927-14.863-52.956-52.088c0,0-35.088-9.094-50.367-30.7-13.883-19.639,28.838-91.728,28.838-91.728Z" transform="translate(-336.125 -187.06)" fill="#fff"/>
              <path id="Path_42" data-name="Path 42" d="M369.728,234.453c7.472,11.2,21.613,34.76,40.694,42.184" transform="translate(-311.646 -152.534)" fill="none" stroke="#263238" stroke-linecap="round" stroke-linejoin="round" stroke-width="1"/>
              <path id="Path_43" data-name="Path 43" d="M357.507,241.424c3.526,1.4,12.181,6.364,16.184,6.553,0,0,17.61,34.871,46.7,46.185" transform="translate(-320.549 -147.456)" fill="none" stroke="#263238" stroke-linecap="round" stroke-linejoin="round" stroke-width="1"/>
              <path id="Path_44" data-name="Path 44" d="M348.159,248.849c10.814,9.043,23.675,15.219,32.342,15.629,0,0,17.61,34.871,46.7,46.185" transform="translate(-327.359 -142.047)" fill="none" stroke="#263238" stroke-linecap="round" stroke-linejoin="round" stroke-width="1"/>
            </g>
            <g id="Group_22" data-name="Group 22" transform="translate(0)">
              <rect id="Rectangle_13964" data-name="Rectangle 13964" width="157.774" height="257.212" rx="10.917" transform="translate(0 95.438) rotate(-37.222)" fill="#263238"/>
              <path id="Path_45" data-name="Path 45" d="M490.473,307.359,402.769,374a23.791,23.791,0,0,1-33.365-4.556L242.623,202.536a23.813,23.813,0,0,1,4.558-33.341l24.641-18.711,63.062-47.929a23.814,23.814,0,0,1,33.365,4.556l50.873,66.969,37.813,49.782,38.1,50.156A23.781,23.781,0,0,1,490.473,307.359Z" transform="translate(-227.038 -94.891)" fill="#0549eb"/>
              <path id="Path_46" data-name="Path 46" d="M404.771,174.08l-147.3-23.6,63.062-47.929a23.814,23.814,0,0,1,33.365,4.556Z" transform="translate(-212.687 -94.891)" opacity="0.1"/>
              <path id="Path_47" data-name="Path 47" d="M490.221,267.027l-87.7,66.64a23.791,23.791,0,0,1-33.365-4.556L242.37,162.2a23.614,23.614,0,0,1-4.252-9.137l221.543,34.385,35.118,46.234A23.781,23.781,0,0,1,490.221,267.027Z" transform="translate(-226.786 -54.558)" opacity="0.1"/>
              <rect id="Rectangle_13965" data-name="Rectangle 13965" width="33.548" height="45.099" rx="4.075" transform="translate(99.267 40.626) rotate(-37.222)" fill="#fff" stroke="#263238" stroke-linecap="round" stroke-linejoin="round" stroke-width="1"/>
              <line id="Line_2" data-name="Line 2" x2="26.735" y2="36.326" transform="translate(112.96 30.224)" fill="#fff" stroke="#263238" stroke-linecap="round" stroke-linejoin="round" stroke-width="1"/>
              <line id="Line_3" data-name="Line 3" y1="20.265" x2="26.735" transform="translate(112.96 38.387)" fill="#fff" stroke="#263238" stroke-linecap="round" stroke-linejoin="round" stroke-width="1"/>
              <path id="Path_48" data-name="Path 48" d="M352.254,282.173l-4.558,3.358L292.025,212.24l4.514-3.424Z" transform="translate(-187.514 -13.945)" fill="#37def5"/>
              <path id="Path_49" data-name="Path 49" d="M356.748,278.9l-4.557,3.38-55.737-73.4,4.492-3.424Z" transform="translate(-184.289 -16.39)" fill="#37def5"/>
              <path id="Path_50" data-name="Path 50" d="M361.251,275.658l-4.557,3.358-55.824-73.487,4.514-3.424Z" transform="translate(-181.072 -18.834)" fill="#37def5"/>
              <path id="Path_51" data-name="Path 51" d="M365.4,271.948l-4.557,3.358-55.083-72.528,4.492-3.424Z" transform="translate(-177.506 -20.838)" fill="#37def5"/>
              <path id="Path_52" data-name="Path 52" d="M370.26,268.436l-4.558,3.358-55.17-72.637,4.514-3.423Z" transform="translate(-174.032 -23.475)" fill="#37def5"/>
              <path id="Path_53" data-name="Path 53" d="M370.26,218.99l-4.558,3.358-55.17-72.637,4.514-3.424Z" transform="translate(-174.032 -59.497)" fill="#37def5"/>
              <rect id="Rectangle_13966" data-name="Rectangle 13966" width="8.864" height="257.034" transform="matrix(0.796, -0.605, 0.605, 0.796, 69.008, 37.384)" fill="#37def5"/>
              <path id="Path_54" data-name="Path 54" d="M490.473,307.359,402.769,374a23.791,23.791,0,0,1-33.365-4.556L242.623,202.536a23.813,23.813,0,0,1,4.558-33.341l24.641-18.711,63.062-47.929a23.814,23.814,0,0,1,33.365,4.556l50.873,66.969,37.813,49.782,38.1,50.156A23.781,23.781,0,0,1,490.473,307.359Z" transform="translate(-227.038 -94.891)" fill="none" stroke="#263238" stroke-linecap="round" stroke-linejoin="round" stroke-width="1"/>
            </g>
            <path id="Path_55" data-name="Path 55" d="M382.53,687.824S484.614,724.148,515.5,645.049c0,0-48.313-58.727-21.936-106.779,16.6-30.244,62.492-97.02,62.492-97.02s19.162-18.2,25.134-36.49c0,0-3.282-20.37-17.741-34.165,0,0-.147-10.407-8.255-16.286s-22.972-17.323-22.972-17.323-24.444-58.639-28.085-69.285-10.91-30.645-14.564-52.761S482.557,169,474.818,169.072c0,0-8-3.471-8,10.736,0,0-16.756,8.627-14.295,26.925s4.755,27.732,4.1,38.034,2.641,46,10.909,57.194c0,0,2.762,50.133,6.9,63.189q.189.6.384,1.091c4.345,11.035-39.182,53.67-62.737,65.083,0,0-2.46,4.606-11.609,3.35s-24.619-1.849-27.288-8.627-20.348-59.713-20.348-59.713-14.331-67.919-42.95-67.913c0,0-4.356-10.383-15.562-4.7s-3.87,36.577,1.089,53.483,17.525,61.349,19.567,81.8-9.543,61.4-5.094,77.518,9.182,26.99,23.084,53.369S377.644,664.83,382.53,687.824Z" transform="translate(-190.131 -43.171)" fill="#fff"/>
            <path id="Path_56" data-name="Path 56" d="M383.024,635.787s-21.848-82.254-53.972-135.424-13.292-72-13.292-116.31S279.695,264.418,289.419,247.8s23.017-3.324,28.556,12.184-2.216,24.37-17.724,25.478" transform="translate(-190.625 8.865)" fill="none" stroke="#263238" stroke-linecap="round" stroke-linejoin="round" stroke-width="1"/>
            <path id="Path_57" data-name="Path 57" d="M300.845,243.749s18.638-1.127,30.107,28.688,29.815,105.5,48.928,128.438" transform="translate(-181.089 11.499)" fill="none" stroke="#263238" stroke-linecap="round" stroke-linejoin="round" stroke-width="1"/>
            <path id="Path_58" data-name="Path 58" d="M337.842,318.495c.109.237,26.7,15.067,67.982,2.071" transform="translate(-154.137 65.955)" fill="none" stroke="#263238" stroke-linecap="round" stroke-linejoin="round" stroke-width="1"/>
            <path id="Path_59" data-name="Path 59" d="M302.89,297.273a18.686,18.686,0,0,1,17.456-6.618" transform="translate(-179.6 45.487)" fill="none" stroke="#263238" stroke-linecap="round" stroke-linejoin="round" stroke-width="1"/>
            <path id="Path_60" data-name="Path 60" d="M304.944,302.061a14.839,14.839,0,0,1,15.008-4.883" transform="translate(-178.103 50.089)" fill="none" stroke="#263238" stroke-linecap="round" stroke-linejoin="round" stroke-width="1"/>
            <path id="Path_61" data-name="Path 61" d="M417.765,175.125c-27.137,9.038-6.945,50.017-10.193,64.959s5.2,43.589,11.692,59.113c0,18.187,6.5,62.361,6.5,62.361-4.012,14.041-37.474,55.466-69.988,68.433" transform="translate(-141.075 -38.489)" fill="none" stroke="#263238" stroke-linecap="round" stroke-linejoin="round" stroke-width="1"/>
            <path id="Path_62" data-name="Path 62" d="M411.55,200.279s-2.014-31.365-11.916-31.365-9.308,21.138-5.173,36.822S414.566,219.1,411.55,200.279Z" transform="translate(-114.947 -43.014)" fill="none" stroke="#263238" stroke-linecap="round" stroke-linejoin="round" stroke-width="1"/>
            <path id="Path_63" data-name="Path 63" d="M403.158,187.06s8.439,49.321,22.735,80.3" transform="translate(-106.555 -29.794)" fill="none" stroke="#263238" stroke-linecap="round" stroke-linejoin="round" stroke-width="1"/>
            <path id="Path_64" data-name="Path 64" d="M429.909,341.648c6.909-11.192,9.977-21.789,12.54-35.27-.65-8.451-10.343-36.049-21.679-62.772" transform="translate(-93.725 11.399)" fill="none" stroke="#263238" stroke-linecap="round" stroke-linejoin="round" stroke-width="1"/>
            <path id="Path_65" data-name="Path 65" d="M429.984,267.557c11.211,8.44,30.734,14.917,28.47,29.478-2.121,13.657-7.408,28.036-15.038,41.285" transform="translate(-87.012 28.847)" fill="none" stroke="#263238" stroke-linecap="round" stroke-linejoin="round" stroke-width="1"/>
            <path id="Path_66" data-name="Path 66" d="M434.846,564.24s-39.076-54.261-31.251-91.731c5.756-27.568,42.773-75.767,69.32-115.7,14.614-13.627,21.931-24.268,25.134-36.49-4.693-23.075-12.286-29.8-19.615-35.706" transform="translate(-106.992 41.271)" fill="none" stroke="#263238" stroke-linecap="round" stroke-linejoin="round" stroke-width="1"/>
            <path id="Path_67" data-name="Path 67" d="M438.253,273.258a33.067,33.067,0,0,0-26.054,3.549" transform="translate(-99.969 32.102)" fill="none" stroke="#263238" stroke-linecap="round" stroke-linejoin="round" stroke-width="1"/>
            <path id="Path_68" data-name="Path 68" d="M432.547,278.232a24.5,24.5,0,0,0-15.46,2.717" transform="translate(-96.408 36.416)" fill="none" stroke="#263238" stroke-linecap="round" stroke-linejoin="round" stroke-width="1"/>
          </g>
        </g>
      </g>
    </g>
    <g id="Group_26" data-name="Group 26" transform="translate(291.705 1347.462) rotate(-22)">
      <path id="Path_10" data-name="Path 10" d="M44.8,17.528H7.68C3.445,17.528,0,12.863,0,7.12V0Z" transform="translate(27.631)" fill="#0549eb"/>
      <path id="Path_11" data-name="Path 11" d="M72.442,0H20.906C9.36,0,0,12.68,0,28.321H0Z" transform="translate(0 17.523)" fill="#37def5"/>
    </g>
    <g id="Group_27" data-name="Group 27" transform="translate(887.956 1792.451) rotate(96)">
      <path id="Path_10-2" data-name="Path 10" d="M44.8,17.528H7.68C3.445,17.528,0,12.863,0,7.12V0Z" transform="translate(27.631)" fill="#0549eb"/>
      <path id="Path_11-2" data-name="Path 11" d="M72.442,0H20.906C9.36,0,0,12.68,0,28.321H0Z" transform="translate(0 17.523)" fill="#37def5"/>
    </g>
    <g id="Group_28" data-name="Group 28" transform="translate(491.651 2024.531) rotate(-155)">
      <path id="Path_10-3" data-name="Path 10" d="M35.926,14.055H6.158C2.763,14.055,0,10.314,0,5.709V0Z" transform="translate(22.156)" fill="#0549eb"/>
      <path id="Path_11-3" data-name="Path 11" d="M58.088,0H16.764C7.505,0,0,10.167,0,22.709H0Z" transform="translate(0 14.051)" fill="#37def5"/>
    </g>
    <path id="Path_69" data-name="Path 69" d="M375.023,1290.92s61,12.318,170.93-69.009,318.248.564,333.351,261.855,3.135,261.771-4.417,285.936" transform="translate(-4.978 48.235)" fill="none" stroke="#92a4ac" stroke-linecap="round" stroke-width="1" stroke-dasharray="16"/>
    <path id="Path_70" data-name="Path 70" d="M864.178,1831.179s-19.45,210.7-195.452,190.019-186.658-56.271-186.658-56.271" transform="translate(-1.372 39.764)" fill="none" stroke="#92a4ac" stroke-linecap="round" stroke-width="1" stroke-dasharray="16"/>
  </g>
</svg>
