<svg xmlns="http://www.w3.org/2000/svg" xmlns:xlink="http://www.w3.org/1999/xlink" width="172" height="51" viewBox="0 0 172 51">
  <defs>
    <linearGradient id="linear-gradient" x1="0.915" y1="0.619" x2="-0.386" y2="-0.051" gradientUnits="objectBoundingBox">
      <stop offset="0" stop-color="#00a0ff"/>
      <stop offset="0.01" stop-color="#00a1ff"/>
      <stop offset="0.26" stop-color="#00beff"/>
      <stop offset="0.51" stop-color="#00d2ff"/>
      <stop offset="0.76" stop-color="#00dfff"/>
      <stop offset="1" stop-color="#00e3ff"/>
    </linearGradient>
    <linearGradient id="linear-gradient-2" x1="1.077" y1="-0.471" x2="-1.306" y2="-0.471" gradientUnits="objectBoundingBox">
      <stop offset="0" stop-color="#ffe000"/>
      <stop offset="0.41" stop-color="#ffbd00"/>
      <stop offset="0.78" stop-color="orange"/>
      <stop offset="1" stop-color="#ff9c00"/>
    </linearGradient>
    <linearGradient id="linear-gradient-3" x1="0.863" y1="-0.824" x2="-0.502" y2="-2.593" gradientUnits="objectBoundingBox">
      <stop offset="0" stop-color="#ff3a44"/>
      <stop offset="1" stop-color="#c31162"/>
    </linearGradient>
    <linearGradient id="linear-gradient-4" x1="-0.188" y1="1.894" x2="0.421" y2="1.105" gradientUnits="objectBoundingBox">
      <stop offset="0" stop-color="#32a071"/>
      <stop offset="0.07" stop-color="#2da771"/>
      <stop offset="0.48" stop-color="#15cf74"/>
      <stop offset="0.8" stop-color="#06e775"/>
      <stop offset="1" stop-color="#00f076"/>
    </linearGradient>
  </defs>
  <g id="Group_11403" data-name="Group 11403" transform="translate(-0.033)">
    <rect id="Rectangle_13912" data-name="Rectangle 13912" width="172" height="51" rx="5" transform="translate(0.033)" fill="#fff"/>
    <g id="Group_11405" data-name="Group 11405" transform="translate(52.446 9.142)">
      <path id="Path_11793" data-name="Path 11793" d="M49.072,11.157a3.46,3.46,0,0,1-.954,2.544,3.689,3.689,0,0,1-2.8,1.119,3.931,3.931,0,0,1-3.969-3.969,3.816,3.816,0,0,1,1.158-2.837,4.02,4.02,0,0,1,4.376-.827,3.231,3.231,0,0,1,1.2.852l-.674.674A2.544,2.544,0,0,0,45.319,7.8a2.951,2.951,0,0,0-2.964,3.053,3,3,0,0,0,5.088,2.2,2.455,2.455,0,0,0,.649-1.552H45.319v-.916h3.7A4.769,4.769,0,0,1,49.072,11.157Z" transform="translate(-41.349 -6.869)" fill="#0c0c0c"/>
      <path id="Path_11794" data-name="Path 11794" d="M52.947,7.941H49.512v2.417h3.129v.916H49.512v2.417h3.435v.941H48.52V7h4.427Z" transform="translate(-39.398 -6.833)" fill="#0c0c0c"/>
      <path id="Path_11795" data-name="Path 11795" d="M55.947,14.633h-.98V7.941H52.83V7h5.3v.941H55.947Z" transform="translate(-38.225 -6.833)" fill="#0c0c0c"/>
      <path id="Path_11796" data-name="Path 11796" d="M59.94,14.633V7h.98v7.633Z" transform="translate(-36.29 -6.833)" fill="#0c0c0c"/>
      <path id="Path_11797" data-name="Path 11797" d="M64.8,14.633h-.98V7.941H61.68V7h5.241v.941H64.8Z" transform="translate(-35.817 -6.833)" fill="#0c0c0c"/>
      <path id="Path_11798" data-name="Path 11798" d="M75.047,13.676a3.956,3.956,0,0,1-5.6,0,3.816,3.816,0,0,1-1.119-2.824A3.816,3.816,0,0,1,69.45,8.028a3.727,3.727,0,0,1,2.8-1.158,3.816,3.816,0,0,1,2.8,1.158,3.905,3.905,0,0,1,1.119,2.824,3.816,3.816,0,0,1-1.119,2.824Zm-4.872-.636a2.913,2.913,0,0,0,4.147,0,3,3,0,0,0,.852-2.188,3,3,0,0,0-.9-2.188,2.913,2.913,0,0,0-4.147,0,3,3,0,0,0-.8,2.188,3,3,0,0,0,.852,2.188Z" transform="translate(-34.008 -6.869)" fill="#0c0c0c"/>
      <path id="Path_11799" data-name="Path 11799" d="M75.58,14.633V7h1.183l3.715,5.941h0V7h.98v7.633H80.439L76.56,8.412h0v6.221Z" transform="translate(-32.035 -6.833)" fill="#0c0c0c"/>
    </g>
    <path id="Path_11800" data-name="Path 11800" d="M75.559,23.03a5.419,5.419,0,1,0,5.432,5.406,5.33,5.33,0,0,0-5.432-5.406Zm0,8.688a3.282,3.282,0,1,1,3.053-3.282,3.129,3.129,0,0,1-3.053,3.282ZM63.7,23.03a5.419,5.419,0,1,0,5.432,5.406A5.33,5.33,0,0,0,63.7,23.03Zm0,8.688a3.282,3.282,0,1,1,3.053-3.282A3.129,3.129,0,0,1,63.7,31.719ZM49.609,24.7v2.29h5.5a4.8,4.8,0,0,1-1.272,2.888,5.623,5.623,0,0,1-4.249,1.679,6.106,6.106,0,0,1,0-12.212,5.9,5.9,0,0,1,4.172,1.641l1.616-1.616a8.014,8.014,0,0,0-5.763-2.315,8.409,8.409,0,1,0,0,16.8A7.722,7.722,0,0,0,55.473,31.5a7.633,7.633,0,0,0,1.984-5.381,7.976,7.976,0,0,0-.114-1.425Zm57.639,1.781a5,5,0,0,0-9.719,1.959,5.381,5.381,0,0,0,9.872,3.015l-1.845-1.272a3.066,3.066,0,0,1-2.659,1.488,2.735,2.735,0,0,1-2.621-1.641l7.238-2.989Zm-7.378,1.806a2.964,2.964,0,0,1,2.837-3.155,2.086,2.086,0,0,1,2,1.145Zm-5.877,5.241h2.379v-15.9H93.992ZM90.1,24.239h-.089a3.74,3.74,0,0,0-2.85-1.208,5.419,5.419,0,0,0,0,10.826,3.664,3.664,0,0,0,2.85-1.272H90.1v.776c0,2.074-1.107,3.18-2.888,3.18a3,3,0,0,1-2.735-1.921l-2.061.852a5.088,5.088,0,0,0,4.8,3.206c2.786,0,5.088-1.641,5.088-5.635V23.348H90.1Zm-2.735,7.48a3.282,3.282,0,0,1,0-6.551,3.04,3.04,0,0,1,2.9,3.269,3.028,3.028,0,0,1-2.9,3.282Zm31.027-14.095h-5.7v15.9h2.379V27.5h3.32a4.948,4.948,0,1,0,0-9.872Zm0,7.633h-3.32V19.837h3.371a2.722,2.722,0,1,1,0,5.445Zm14.68-2.277a4.44,4.44,0,0,0-4.236,2.43l2.1.878a2.264,2.264,0,0,1,2.175-1.158,2.29,2.29,0,0,1,2.544,2.048v.153a5.317,5.317,0,0,0-2.481-.611c-2.264,0-4.58,1.272-4.58,3.587a3.676,3.676,0,0,0,3.956,3.5,3.371,3.371,0,0,0,3.028-1.552h.076v1.272h2.29V27.406c0-2.786-2.112-4.4-4.821-4.4Zm-.293,8.714c-.776,0-1.857-.394-1.857-1.348,0-1.272,1.348-1.7,2.544-1.7a4.223,4.223,0,0,1,2.163.534,2.875,2.875,0,0,1-2.8,2.544Zm13.51-8.345-2.722,6.895h-.076l-2.824-6.895h-2.544l4.236,9.643-2.417,5.356h2.544l6.45-15ZM124.917,33.525h2.366v-15.9h-2.366Z" transform="translate(10.967 5.042)" fill="#0c0c0c"/>
    <path id="Path_11801" data-name="Path 11801" d="M10.561,7.559A2.544,2.544,0,0,0,10,9.34V37.479a2.468,2.468,0,0,0,.6,1.781l.089.1L26.412,23.6v-.382L10.65,7.47Z" transform="translate(2.565 2.436)" fill="url(#linear-gradient)"/>
    <path id="Path_11802" data-name="Path 11802" d="M28.116,26.609,22.9,21.355v-.382l5.216-5.254.114.076,6.246,3.536c1.781,1,1.781,2.659,0,3.676l-6.221,3.536Z" transform="translate(6.077 4.681)" fill="url(#linear-gradient-2)"/>
    <path id="Path_11803" data-name="Path 11803" d="M31.659,25.381,26.29,20,10.44,35.85a2.061,2.061,0,0,0,2.633.089L31.659,25.381" transform="translate(2.686 5.846)" fill="url(#linear-gradient-3)"/>
    <path id="Path_11804" data-name="Path 11804" d="M31.659,18.133,13.073,7.575a2.048,2.048,0,0,0-2.633.076L26.29,23.5Z" transform="translate(2.686 2.344)" fill="url(#linear-gradient-4)"/>
    <path id="Path_11805" data-name="Path 11805" d="M31.506,24.13,13.073,34.625a2.112,2.112,0,0,1-2.544,0h0l-.089.089h0l.089.1h0a2.112,2.112,0,0,0,2.544,0L31.659,24.257Z" transform="translate(2.686 6.969)" opacity="0.2"/>
    <path id="Path_11806" data-name="Path 11806" d="M10.561,32.7A2.544,2.544,0,0,1,10,30.91V31.1a2.468,2.468,0,0,0,.6,1.781l.089-.089Z" transform="translate(2.565 8.814)" opacity="0.12"/>
    <path id="Path_11807" data-name="Path 11807" d="M33.361,21.654,27,25.254l.114.127,6.246-3.549A2.226,2.226,0,0,0,34.709,20h0A2.366,2.366,0,0,1,33.361,21.654Z" transform="translate(7.192 5.846)" opacity="0.12"/>
    <path id="Path_11808" data-name="Path 11808" d="M13.193,7.751,37.986,21.846A2.366,2.366,0,0,1,39.335,23.5h0a2.226,2.226,0,0,0-1.348-1.832L13.193,7.573C11.425,6.555,10,7.395,10,9.43v.191C10,7.585,11.425,6.746,13.193,7.751Z" transform="translate(2.566 2.346)" fill="#fff" opacity="0.25"/>
  </g>
</svg>
